# xmcd
#
# Track frame offsets:
#	150
#	12478
#	27157
#	41290
#	55526
#	69476
#	79514
#	92907
#	107241
#	118438
#	130090
#	140672
#	150326
#	163079
#	175568
#	188513
#	200204
#	212307
#	231120
#	248503
#	262819
#	282625
#	295022
#	308219
#	321380
#
# Disc length: 4485 seconds
#
# Revision: 1
# Processed by: cddbd v1.5.2PL0 Copyright (c) Steve Scherf et al.
# Submitted via: audiograbber 1.83.01
#
DISCID=59118319
DTITLE=T-Bone Walker - You're My Best Poker Hand (The Definitive Collection) CD
DTITLE=03
DYEAR=2011
DGENRE=Blues
TTITLE0=Tell Me What's The Reason
TTITLE1=Cold, Cold Feeling
TTITLE2=Get These Blues Off Me
TTITLE3=Street Walkin' Woman
TTITLE4=Here In The Dark
TTITLE5=Party Girl
TTITLE6=Love Is Just A Gamble
TTITLE7=I'm Still In Love With You
TTITLE8=Vida Lee
TTITLE9=When The Sun Goes Down
TTITLE10=I'll Always Be In Love With You
TTITLE11=Teen Age Baby
TTITLE12=Papa Ain't Salty
TTITLE13=Why Not
TTITLE14=T-Bone Shuffle
TTITLE15=Play On Little Girl
TTITLE16=T-Bone Blues Special
TTITLE17=Mean Old World [1956]
TTITLE18=T-Bone Blues [1956]
TTITLE19=Stormy Monday Blues [1956]
TTITLE20=Blues For Marili
TTITLE21=Evenin'
TTITLE22=Blues Rock
TTITLE23=Two Bones And A Pick
TTITLE24=Shufflin' The Blues
EXTD=
EXTT0=
EXTT1=
EXTT2=
EXTT3=
EXTT4=
EXTT5=
EXTT6=
EXTT7=
EXTT8=
EXTT9=
EXTT10=
EXTT11=
EXTT12=
EXTT13=
EXTT14=
EXTT15=
EXTT16=
EXTT17=
EXTT18=
EXTT19=
EXTT20=
EXTT21=
EXTT22=
EXTT23=
EXTT24=
PLAYORDER=
